<?xml version="1.0" encoding="UTF-8"?>
<svg width="1600px" height="1600px" viewBox="0 0 1600 1600" version="1.1" xmlns="http://www.w3.org/2000/svg" xmlns:xlink="http://www.w3.org/1999/xlink">
    <!-- Generator: Sketch 42 (36781) - http://www.bohemiancoding.com/sketch -->
    <title>Untitled</title>
    <desc>Created with Sketch.</desc>
    <defs>
        <linearGradient x1="14.1127034%" y1="49.7500002%" x2="101.257813%" y2="49.7500002%" id="linearGradient-1">
            <stop stop-color="#796DE0" offset="0%"></stop>
            <stop stop-color="#53A0FE" offset="44.1067443%"></stop>
            <stop stop-color="#B4ED50" offset="100%"></stop>
        </linearGradient>
    </defs>
    <g id="Page-1" stroke="none" stroke-width="1" fill="none" fill-rule="evenodd">
        <g id="Group">
            <circle id="Oval" fill="url(#linearGradient-1)" cx="800" cy="800" r="800"></circle>
            <circle id="Oval" fill="#FFFFFF" cx="800" cy="800" r="700"></circle>
            <polyline id="Path" fill="url(#linearGradient-1)" points="558.842712 700.264069 276 417.421356 417.421356 276 700.264069 558.842712 700 160 900 160 900 560 1182.84271 276 1324.26407 417.421356 1041.42136 700.264069 1440 700 1440 900 1040 900 1324.26407 1182.84271 1182.84271 1324.26407 900 1041.42136 900 1440 700 1440 700 1040 417.421356 1324.26407 276 1182.84271 558.842712 900 160 900 160 700 560 700"></polyline>
        </g>
        <path d="M792.211436,1074.00866 L789.244419,1070.70298 L776.645756,1052.87456 L766.348405,1036.85334 L758.418487,1022.00464 L750.37937,1008.36375 L746.324659,999.711255 L741.437594,989.470732 L737.082869,980.492954 L731.984899,965.208001 L731.106898,960.306529 L732.492282,944.471519 L733.809596,935.362469 L737.992349,923.48311 L743.167945,911.734173 L750.752186,900.848202 L755.580479,890.014268 L761.863371,878.016076 L768.382784,868.441486 L778.971665,853.468589 L780.30033,851.668002 L771.230666,682.367617 L766.238687,679.443822 L760.507338,675.60834 L757.304912,674.02123 L752.557772,671.126925 L748.653962,669.501094 L743.656212,667.131146 L739.243353,665.041191 L734.366222,662.854889 L728.962549,659.201204 L723.811001,656.400167 L720.693692,654.625286 L717.218323,652.201103 L712.1061,649.160721 L708.044192,646.462215 L704.862648,644.025233 L702.655527,641.220675 L698.305805,635.53483 L697.171607,632.888693 L694.739026,628.839853 L691.337506,624.457187 L689.279688,618.674147 L689,613.446511 L689.251948,608.066913 L689.418681,603.29792 L689.810916,599.183576 L690.517159,596.160364 L692.055076,591.444374 L693.165628,587.698291 L698.154121,577.250998 L706.59679,565.001228 C706.59679,565.001228 711.466098,555.409659 717.218323,546.716684 L721.598227,541.141073 L725.60758,535.213637 L730.838673,528.70118 L736.479744,523.158961 L743.252311,517.474246 L749.084617,511.201942 L752.67402,507.540893 L756.835109,504.190783 L761.415749,500.206849 L761.467808,500.127596 L754.922373,377.946137 L752.216841,376.011155 C752.216841,376.011155 729.593563,367.607174 727.943626,360.688735 C727.165867,357.427471 725.03071,351.341904 726.393666,348.281127 C727.756622,345.220349 731.929228,342.451768 732.697685,341.748837 C735.185981,339.472719 744.094197,338.955802 752.838506,339.047282 L750.693115,299 L858.172754,299 L852.954518,396.407076 L869.098648,409.504407 L874.236795,419.894643 L872.663105,435.696043 L866.899737,451.821085 L861.576496,458.370992 L858.172754,462.641702 L849.098454,468.386931 L837.171802,691.017764 L846.868123,699.875644 L853.349562,705.739458 L862.762727,716.088346 L866.899737,722.822279 L876.804949,736.801875 L882.557495,746.408194 L885.825176,753.93695 L886.860126,761.969696 L887,770.207866 L886.061901,777.04137 L882.935514,787.087054 L875.179767,797.780246 L869.098648,806.718577 L864.601325,813.419641 L860.234555,820.324031 L853.541338,830.499153 L847.034878,839.979513 L837.202332,850.941922 L829.493566,860.115772 L828.018373,861.88177 L817.078192,1066.09849 L818.152869,1068.58408 L821.742979,1077.56796 L826.086098,1089.57161 L828.450451,1099.84926 L829.857058,1107.60371 L829.436288,1114.68733 L828.992859,1119.75574 L827.660595,1125.42924 L826.734194,1132.23669 L824.706457,1138.20254 L822.803078,1141.38785 L821.589877,1144.97378 L818.716774,1146.7686 L816.112609,1146.55254 L815.735668,1141.92566 L816.938692,1128.17503 L815.464868,1118.60516 L814.607523,1112.21765 L804.432935,1302.14329 L792.211436,1074.00866 Z M789.946826,1031.73593 L783.714311,915.395648 L781.199813,921.053753 L775.450601,929.378197 L767.252363,938.257722 L762.836108,943.440072 L759.771858,949.980738 L757.425357,958.738068 L756.923459,964.474798 L757.222831,976.595596 L758.399851,984.282866 L760.946108,992.185291 L763.956236,998.540096 L770.154401,1006.82089 L779.784905,1019.24121 L787.615921,1028.97639 L789.946826,1031.73593 Z M769.226622,644.958797 L763.905758,545.635999 L763.755586,545.831314 L755.279741,556.600429 L743.502898,571.081277 L737.469305,579.005385 L734.366222,584.653464 L731.607746,595.069227 L730.906324,603.934299 L732.697685,613.736804 L738.768445,623.837182 L744.809807,630.249977 L753.046401,635.309009 L761.684629,640.850561 L769.226622,644.958797 Z M834.926895,732.922702 L831.421479,798.357131 L832.015696,797.55586 L835.429126,789.66123 L838.339085,784.580365 L841.963819,778.769691 L844.154751,772.987919 L845.320127,769.079968 L846.868123,764.7451 L847.034878,761.969696 L848.101576,756.027972 L845.320127,747.594129 L841.963819,742.337528 L836.665464,735.560302 L834.926895,732.922702 Z" id="Combined-Shape" fill="#FFFFFF"></path>
    </g>
</svg>