<svg xmlns="http://www.w3.org/2000/svg" xmlns:xlink="http://www.w3.org/1999/xlink" viewBox="0 0 1600 1600">
  <defs>
    <style>
      .cls-1 {
        clip-path: url(#clip-Custom_Size_1);
      }

      .cls-2, .cls-4 {
        fill: #fff;
      }

      .cls-3, .cls-5 {
        fill: #1eaaf1;
      }

      .cls-4, .cls-5 {
        fill-rule: evenodd;
      }
    </style>
    <clipPath id="clip-Custom_Size_1">
      <rect width="1600" height="1600"/>
    </clipPath>
  </defs>
  <g id="Custom_Size_1" data-name="Custom Size – 1" class="cls-1">
    <g id="icon" transform="translate(1 -1)">
      <g id="Group">
        <circle id="Oval" class="cls-2" cx="800" cy="800" r="800"/>
        <circle id="Oval-2" data-name="Oval" class="cls-3" cx="700" cy="700" r="700" transform="translate(100 100)"/>
        <path id="Path" class="cls-4" d="M558.843,700.264,276,417.421,417.421,276,700.264,558.843,700,160H900V560l282.843-284,141.421,141.421L1041.421,700.264,1440,700V900H1040l284.264,282.843-141.421,141.421L900,1041.421V1440H700V1040L417.421,1324.264,276,1182.843,558.843,900H160V700H560"/>
      </g>
      <path id="Combined-Shape" class="cls-5" d="M792.211,1074.009l-2.967-3.306-12.6-17.828-10.3-16.021L758.418,1022l-8.039-13.641-4.055-8.653-4.887-10.241-4.355-8.978-5.1-15.285-.878-4.9,1.385-15.835,1.317-9.109,4.183-11.879,5.176-11.749,7.584-10.886,4.828-10.834,6.283-12,6.519-9.575,10.589-14.973,1.329-1.8-9.07-169.3-4.992-2.924-5.731-3.836-3.2-1.587-4.747-2.894-3.9-1.626-5-2.37-4.413-2.09-4.877-2.186-5.4-3.654-5.152-2.8-3.117-1.775-3.475-2.424-5.112-3.04-4.062-2.7-3.182-2.437-2.207-2.8-4.35-5.686-1.134-2.646-2.433-4.049-3.4-4.383-2.058-5.783-.28-5.228.252-5.38.167-4.769.392-4.114.706-3.023,1.538-4.716,1.111-3.746,4.988-10.447L706.6,565s4.869-9.592,10.622-18.285l4.38-5.576,4.009-5.927,5.231-6.512,5.641-5.542,6.773-5.685,5.832-6.272,3.589-3.661,4.161-3.35,4.581-3.984.052-.079-6.545-122.181-2.706-1.935s-22.623-8.4-24.273-15.322c-.778-3.261-2.913-9.347-1.55-12.408s5.536-5.829,6.3-6.532c2.488-2.276,11.4-2.793,20.141-2.7L750.693,299h107.48l-5.218,97.407L869.1,409.5l5.138,10.39-1.574,15.8L866.9,451.821l-5.323,6.55-3.4,4.271-9.074,5.745L837.172,691.018l9.7,8.858,6.481,5.864,9.413,10.349,4.137,6.734L876.8,736.8l5.753,9.606,3.268,7.529,1.035,8.033.14,8.238-.938,6.833-3.126,10.046L875.18,797.78l-6.081,8.938-4.5,6.7-4.367,6.9L853.541,830.5l-6.506,9.48L837.2,850.942l-7.709,9.174-1.475,1.766L817.078,1066.1l1.075,2.486,3.59,8.984,4.343,12,2.364,10.278,1.407,7.755-.421,7.084-.443,5.068-1.332,5.673-.926,6.807-2.028,5.966-1.9,3.185-1.213,3.586-2.873,1.795-2.6-.216-.377-4.627,1.2-13.751-1.474-9.57-.857-6.387-10.175,189.926Zm-2.265-42.273L783.714,915.4l-2.514,5.658-5.749,8.324-8.2,8.88-4.416,5.182-3.064,6.541-2.346,8.757-.5,5.737.3,12.121,1.177,7.687,2.546,7.9,3.01,6.355,6.2,8.281,9.63,12.42,7.831,9.735Zm-20.72-386.777-5.321-99.323-.15.2L755.28,556.6,743.5,571.081l-6.034,7.924-3.1,5.648-2.758,10.416-.7,8.865,1.791,9.8,6.071,10.1,6.041,6.413,8.237,5.059,8.638,5.542Zm65.7,87.964-3.505,65.434.594-.8,3.413-7.895,2.91-5.081,3.625-5.811,2.191-5.782,1.165-3.908,1.548-4.335.167-2.775,1.067-5.942-2.781-8.434-3.356-5.257-5.3-6.777Z"/>
    </g>
  </g>
</svg>
